<svg width="749" height="765" viewBox="0 0 749 765" fill="none" xmlns="http://www.w3.org/2000/svg">
<path d="M288.094 179.797C300.089 174.737 313.921 175.511 328.703 181.319C343.488 187.128 359.191 197.961 374.878 212.958C406.252 242.95 437.493 289.527 461.141 345.584C484.789 401.641 496.348 456.521 495.936 499.923C495.73 521.624 492.531 540.431 486.374 555.074C480.218 569.715 471.121 580.162 459.126 585.223C447.131 590.283 433.299 589.508 418.517 583.7C403.732 577.891 388.029 567.058 372.342 552.061C340.968 522.069 309.727 475.493 286.079 419.435C262.431 363.378 250.872 308.498 251.284 265.097C251.49 243.395 254.689 224.588 260.846 209.945C267.002 195.305 276.099 184.857 288.094 179.797Z" stroke="#FBAA84" stroke-opacity="0.5"/>
<path d="M258.558 109.783C270.553 104.723 284.385 105.498 299.167 111.305C313.952 117.114 329.654 127.948 345.342 142.944C376.716 172.937 407.957 219.513 431.605 275.57C455.253 331.628 466.812 386.508 466.4 429.909C466.194 451.61 462.995 470.417 456.838 485.061C450.682 499.701 441.585 510.149 429.59 515.209C417.595 520.269 403.763 519.494 388.981 513.687C374.196 507.878 358.493 497.045 342.806 482.048C311.432 452.056 280.191 405.479 256.543 349.422C232.895 293.364 221.336 238.484 221.748 195.083C221.954 173.382 225.153 154.575 231.31 139.931C237.466 125.291 246.563 114.843 258.558 109.783Z" stroke="#FBAA84" stroke-opacity="0.5"/>
<path d="M317.629 249.81C329.625 244.749 343.456 245.524 358.238 251.332C373.023 257.141 388.726 267.974 404.413 282.971C435.787 312.963 467.028 359.54 490.676 415.597C514.325 471.654 525.883 526.534 525.471 569.935C525.265 591.637 522.066 610.444 515.909 625.087C509.754 639.727 500.656 650.175 488.661 655.235C476.666 660.295 462.834 659.521 448.052 653.713C433.267 647.904 417.565 637.071 401.877 622.074C370.503 592.082 339.262 545.505 315.614 489.448C291.966 433.391 280.407 378.511 280.819 335.11C281.025 313.408 284.224 294.601 290.381 279.958C296.537 265.317 305.634 254.87 317.629 249.81Z" stroke="#FBAA84" stroke-opacity="0.5"/>
<path d="M167.692 300.526C172.655 288.615 183.109 279.493 197.848 273.221C212.589 266.947 231.584 263.541 253.549 263.054C297.476 262.079 353.178 272.778 410.229 295.404C467.281 318.03 514.836 348.281 545.606 378.88C560.991 394.181 572.163 409.55 578.236 424.079C584.308 438.604 585.272 452.254 580.309 464.165C575.346 476.076 564.892 485.198 550.154 491.47C535.412 497.743 516.417 501.149 494.453 501.637C450.526 502.612 394.823 491.913 337.772 469.286C280.72 446.66 233.165 416.409 202.395 385.81C187.01 370.51 175.839 355.141 169.765 340.612C163.693 326.086 162.729 312.436 167.692 300.526Z" stroke="#FBAA84" stroke-opacity="0.5"/>
<path d="M96.4403 272.268C101.403 260.358 111.857 251.236 126.596 244.963C141.337 238.69 160.332 235.284 182.297 234.796C226.224 233.821 281.926 244.521 338.977 267.147C396.029 289.773 443.584 320.024 474.354 350.623C489.74 365.923 500.911 381.293 506.984 395.821C513.056 410.347 514.02 423.997 509.057 435.908C504.094 447.818 493.64 456.94 478.902 463.213C464.16 469.486 445.165 472.892 423.201 473.38C379.274 474.355 323.571 463.655 266.52 441.029C209.468 418.403 161.913 388.152 131.143 357.553C115.758 342.253 104.587 326.883 98.5133 312.355C92.441 297.829 91.4771 284.179 96.4403 272.268Z" stroke="#FBAA84" stroke-opacity="0.5"/>
<path d="M238.946 328.785C243.909 316.874 254.363 307.752 269.102 301.48C283.843 295.207 302.838 291.801 324.803 291.313C368.729 290.338 424.432 301.037 481.483 323.664C538.535 346.29 586.09 376.541 616.86 407.14C632.245 422.44 643.416 437.809 649.49 452.338C655.562 466.864 656.526 480.514 651.563 492.424C646.6 504.335 636.146 513.457 621.407 519.729C606.666 526.003 587.671 529.409 565.706 529.896C521.78 530.871 466.077 520.172 409.026 497.546C351.974 474.92 304.419 444.669 273.649 414.07C258.264 398.769 247.092 383.4 241.019 368.871C234.947 354.346 233.983 340.696 238.946 328.785Z" stroke="#FBAA84" stroke-opacity="0.5"/>
</svg>
