<svg width="14" height="32" viewBox="0 0 14 32" fill="none" xmlns="http://www.w3.org/2000/svg">
<path d="M9.33932 30.1802C8.42583 31.1475 7.18668 31.6926 5.8893 31.6978L5.74507 31.6971C5.09601 31.7027 4.45139 31.5706 3.84918 31.3087C3.24697 31.0468 2.69936 30.6603 2.23862 30.1721C1.73844 29.645 1.34122 29.0189 1.06996 28.3301C0.798696 27.6414 0.658793 26.9036 0.658357 26.1595L0.680943 8.05225C0.637482 6.16402 1.29618 4.3395 2.51514 2.9717C3.7341 1.60391 5.41578 0.802301 7.19791 0.739562C8.03084 0.742161 8.85635 0.920269 9.6263 1.26351C10.3963 1.60674 11.0953 2.10824 11.6826 2.73877C12.3382 3.44331 12.8569 4.2769 13.209 5.19165C13.561 6.1064 13.7395 7.08428 13.734 8.06909L13.7264 24.3557C13.7435 24.4751 13.7358 24.5967 13.704 24.7121C13.6722 24.8276 13.6169 24.9341 13.5421 25.0243C13.4672 25.1145 13.3746 25.1862 13.2706 25.2345C13.1667 25.2827 13.0538 25.3063 12.94 25.3036C12.8261 25.301 12.714 25.2721 12.6113 25.219C12.5086 25.166 12.4179 25.09 12.3455 24.9963C12.273 24.9027 12.2206 24.7936 12.1918 24.6767C12.1629 24.5599 12.1584 24.4379 12.1786 24.3195L12.1641 8.05624C12.1698 7.29064 12.0326 6.53011 11.7603 5.81833C11.4881 5.10655 11.0862 4.45753 10.5777 3.90853C10.1373 3.43377 9.61265 3.05599 9.0344 2.79727C8.45615 2.53854 7.83593 2.40409 7.21004 2.40176C5.84046 2.46325 4.55291 3.09172 3.62443 4.15196C2.69596 5.21219 2.20076 6.61945 2.24538 8.07094L2.25042 26.149C2.24519 26.676 2.33914 27.1998 2.52681 27.6897C2.71447 28.1796 2.99209 28.6258 3.34346 29.0024C3.6527 29.3323 4.02021 29.5945 4.42468 29.7737C4.82915 29.9529 5.26253 30.0457 5.6997 30.0465L5.84393 30.0472C6.79721 30.0098 7.69537 29.5775 8.34507 28.8433C8.99476 28.1091 9.34404 27.1317 9.3177 26.1216L9.33915 10.5281C9.33641 10.2299 9.27753 9.93474 9.16595 9.65994C9.05437 9.38514 8.89233 9.1362 8.68931 8.92768C8.51682 8.7425 8.31154 8.5952 8.08542 8.49437C7.85931 8.39354 7.61687 8.34119 7.37225 8.34038C6.83529 8.36262 6.3299 8.6076 5.96518 9.02244C5.60045 9.43729 5.40564 9.98872 5.4228 10.5577L5.42104 21.3176C5.42118 21.538 5.3386 21.7487 5.19149 21.9034C5.04437 22.058 4.84476 22.1439 4.63657 22.1422C4.42838 22.1405 4.22866 22.0513 4.08135 21.8943C3.93404 21.7372 3.85121 21.5251 3.85107 21.3047L3.85822 10.5038C3.84274 9.49664 4.20181 8.52676 4.85796 7.80338C5.5141 7.08 6.41472 6.66111 7.3655 6.63709C7.81914 6.64339 8.26776 6.74581 8.68488 6.93831C9.102 7.13082 9.47917 7.40951 9.79416 7.75793C10.1404 8.12572 10.4143 8.56233 10.6001 9.04219C10.7858 9.52206 10.8796 10.0355 10.8759 10.5525L10.8988 26.1463C10.9037 27.6605 10.3431 29.1104 9.33932 30.1802Z" fill="#151515"/>
</svg>
